<?xml version="1.0"?>
<svg xmlns="http://www.w3.org/2000/svg" xmlns:xlink="http://www.w3.org/1999/xlink" version="1.1" id="Layer_1" x="0px" y="0px" viewBox="0 0 291.319 291.319" style="enable-background:new 0 0 291.319 291.319;" xml:space="preserve" width="512px" height="512px" class=""><g><g>
	<path style="fill:#F2F5F6" d="M145.659,0c80.45,0,145.66,65.219,145.66,145.66c0,80.45-65.21,145.659-145.66,145.659   S0,226.109,0,145.66C0,65.219,65.21,0,145.659,0z" data-original="#26A6D1" class="" data-old_color="#26A6D1"/>
	<path style="fill:#0808E9" d="M236.724,98.129c-6.363,2.749-13.21,4.597-20.392,5.435c7.338-4.27,12.964-11.016,15.613-19.072   c-6.864,3.96-14.457,6.828-22.55,8.366c-6.473-6.691-15.695-10.87-25.909-10.87c-19.591,0-35.486,15.413-35.486,34.439   c0,2.704,0.31,5.335,0.919,7.857c-29.496-1.438-55.66-15.158-73.157-35.996c-3.059,5.089-4.807,10.997-4.807,17.315   c0,11.944,6.263,22.504,15.786,28.668c-5.826-0.182-11.289-1.721-16.086-4.315v0.437c0,16.696,12.235,30.616,28.476,33.784   c-2.977,0.783-6.109,1.211-9.35,1.211c-2.285,0-4.506-0.209-6.673-0.619c4.515,13.692,17.625,23.651,33.165,23.925   c-12.153,9.249-27.457,14.748-44.089,14.748c-2.868,0-5.69-0.164-8.476-0.482c15.722,9.777,34.367,15.485,54.422,15.485   c65.292,0,100.997-52.51,100.997-98.029l-0.1-4.461C225.945,111.111,231.963,105.048,236.724,98.129z" data-original="#FFFFFF" class="active-path" data-old_color="#0909E9"/>
</g></g> </svg>
